<?xml version="1.0" encoding="UTF-8" standalone="no"?>
<!-- Created with Inkscape (http://www.inkscape.org/) -->

<svg
   xmlns:dc="http://purl.org/dc/elements/1.1/"
   xmlns:cc="http://creativecommons.org/ns#"
   xmlns:rdf="http://www.w3.org/1999/02/22-rdf-syntax-ns#"
   xmlns:svg="http://www.w3.org/2000/svg"
   xmlns="http://www.w3.org/2000/svg"
   xmlns:sodipodi="http://sodipodi.sourceforge.net/DTD/sodipodi-0.dtd"
   xmlns:inkscape="http://www.inkscape.org/namespaces/inkscape"
   width="64.729393mm"
   height="75.469368mm"
   viewBox="0 0 229.35612 267.41115"
   id="svg2"
   version="1.1"
   inkscape:version="0.91 r13725"
   sodipodi:docname="mravec.svg">
  <defs
     id="defs4">
    <pattern
       y="0"
       x="0"
       height="6"
       width="6"
       patternUnits="userSpaceOnUse"
       id="EMFhbasepattern" />
  </defs>
  <sodipodi:namedview
     id="base"
     pagecolor="#ffffff"
     bordercolor="#666666"
     borderopacity="1.0"
     inkscape:pageopacity="0.0"
     inkscape:pageshadow="2"
     inkscape:zoom="1.4"
     inkscape:cx="88.04933"
     inkscape:cy="139.59007"
     inkscape:document-units="px"
     inkscape:current-layer="layer1"
     showgrid="false"
     fit-margin-top="0"
     fit-margin-left="0"
     fit-margin-right="0"
     fit-margin-bottom="0"
     inkscape:window-width="1600"
     inkscape:window-height="854"
     inkscape:window-x="-8"
     inkscape:window-y="-8"
     inkscape:window-maximized="1" />
  <metadata
     id="metadata7">
    <rdf:RDF>
      <cc:Work
         rdf:about="">
        <dc:format>image/svg+xml</dc:format>
        <dc:type
           rdf:resource="http://purl.org/dc/dcmitype/StillImage" />
        <dc:title></dc:title>
      </cc:Work>
    </rdf:RDF>
  </metadata>
  <g
     inkscape:label="Layer 1"
     inkscape:groupmode="layer"
     id="layer1"
     transform="translate(-257.36919,-392.47553)">
    <g
       id="g4184"
       transform="translate(-45.095627,36.67636)"
       style="stroke:#ffffff;stroke-opacity:1;stroke-width:5.0000006;stroke-miterlimit:4;stroke-dasharray:none;fill:none">
      <g
         style="fill:none;stroke:#ffffff;stroke-width:1.41111123;stroke-miterlimit:4;stroke-dasharray:none;stroke-opacity:1"
         transform="matrix(3.5433071,0,0,3.5433073,302.97137,356.3047)"
         id="g4170">
        <path
           style="fill:none;stroke:#ffffff;stroke-width:1.41111123;stroke-linecap:round;stroke-linejoin:round;stroke-miterlimit:4;stroke-dasharray:none;stroke-opacity:1"
           d="M 36.169318,47.91964 46.6344,54.896456 52.876873,66.09588 63.709127,75.184282"
           id="path4141"
           inkscape:connector-curvature="0" />
        <path
           style="fill:none;stroke:#ffffff;stroke-width:1.41111123;stroke-linecap:round;stroke-linejoin:round;stroke-miterlimit:4;stroke-dasharray:none;stroke-opacity:1"
           d="m 36.536489,43.4213 9.914184,-4.222609 7.894885,5.140678 10.097911,4.314613"
           id="path4143"
           inkscape:connector-curvature="0" />
        <path
           style="fill:none;stroke:#ffffff;stroke-width:1.41111123;stroke-linecap:round;stroke-linejoin:round;stroke-miterlimit:4;stroke-dasharray:none;stroke-opacity:1"
           d="M 28.274433,47.91964 17.80921,54.896456 11.566793,66.09588 0.73439867,75.184282"
           id="path4145"
           inkscape:connector-curvature="0" />
        <path
           style="fill:none;stroke:#ffffff;stroke-width:1.41111123;stroke-linecap:round;stroke-linejoin:round;stroke-miterlimit:4;stroke-dasharray:none;stroke-opacity:1"
           d="m 27.907206,43.4213 -9.91441,-4.222609 -7.8948,5.140678 L 0,48.653982"
           id="path4147"
           inkscape:connector-curvature="0" />
        <path
           style="fill:none;stroke:#ffffff;stroke-width:1.41111123;stroke-linecap:round;stroke-linejoin:round;stroke-miterlimit:4;stroke-dasharray:none;stroke-opacity:1"
           d="m 7.1604011,19.5534 6.7932019,6.976787 6.976787,3.672106 8.445557,11.291429"
           id="path4149"
           inkscape:connector-curvature="0" />
        <path
           style="fill:none;stroke:#ffffff;stroke-width:1.41111123;stroke-linecap:round;stroke-linejoin:round;stroke-miterlimit:4;stroke-dasharray:none;stroke-opacity:1"
           d="M 40.667376,16.064992 49.20488,14.04541 60.679753,0"
           id="path4151"
           inkscape:connector-curvature="0" />
        <path
           style="fill:none;stroke:#ffffff;stroke-width:1.41111123;stroke-linecap:round;stroke-linejoin:round;stroke-miterlimit:4;stroke-dasharray:none;stroke-opacity:1"
           d="M 23.776206,16.064992 15.238786,14.04541 3.7638002,0"
           id="path4153"
           inkscape:connector-curvature="0" />
        <path
           style="fill:none;stroke:#ffffff;stroke-width:1.41111123;stroke-linecap:round;stroke-linejoin:round;stroke-miterlimit:4;stroke-dasharray:none;stroke-opacity:1"
           d="m 36.90366,45.257438 0,-0.367171 0,-0.459176 -0.183727,-0.458893 -0.09172,-0.458894 -0.183727,-0.367171 -0.275166,-0.459175 -0.275449,-0.367171 -0.367171,-0.367171 -0.367171,-0.367172 -0.367454,-0.275448 -0.367171,-0.275449 -0.458893,-0.183445 -0.458893,-0.092 -0.459176,-0.09172 -0.367171,-0.09172 -0.458893,0 -0.459176,0 -0.367171,0.09172 -0.458893,0.09172 -0.459176,0.092 -0.458893,0.183445 -0.367171,0.275449 -0.458894,0.275448 -0.275449,0.367172 -0.367171,0.367171 -0.275449,0.367171 -0.27542,0.459175 -0.183614,0.367171 -0.183586,0.458894 -0.09181,0.458893 0,0.459176 -0.09181,0.367171 0.09181,0.458893 0,0.459176 0.09181,0.367171 0.183586,0.458893 0.183614,0.458893 0.27542,0.367454 0.275449,0.458893 0.367171,0.367171 0.275449,0.275449 0.458894,0.275449 0.367171,0.275449 0.458893,0.183444 0.459176,0.183727 0.458893,0.09172 0.367171,0.09172 0.459176,0 0.458893,0 0.367171,-0.09172 0.459176,-0.09172 0.458893,-0.183727 0.458893,-0.183444 0.367171,-0.275449 0.367454,-0.275449 0.367171,-0.275449 0.367171,-0.367171 0.275449,-0.458893 0.275166,-0.367454 0.183727,-0.458893 0.09172,-0.458893 0.183727,-0.367171 0,-0.459176 0,-0.458893"
           id="path4155"
           inkscape:connector-curvature="0" />
        <path
           style="fill:none;stroke:#ffffff;stroke-width:1.41111123;stroke-linecap:round;stroke-linejoin:round;stroke-miterlimit:4;stroke-dasharray:none;stroke-opacity:1"
           d="m 39.198691,68.115462 0.64262,-0.734342 0.550616,-0.734342 0.459175,-0.734342 0.458894,-0.918069 0.367171,-0.918069 0.275449,-1.009791 0.09172,-1.009791 0.09172,-1.009792 -0.09172,-1.009791 -0.09172,-1.009791 -0.275449,-0.918069 -0.367171,-1.009791 -0.458894,-0.826064 -0.459175,-0.826347 -0.550616,-0.734342 -0.64262,-0.64262 -0.64262,-0.64262 -0.734342,-0.550616 -0.826347,-0.459175 -0.826064,-0.458894 -0.918069,-0.367171 -1.009791,-0.183726 -1.009791,-0.183445 -1.009791,-0.09172 -1.009792,0.09172 -1.009791,0.183445 -1.009791,0.183726 -0.918069,0.367171 -0.826233,0.458894 -0.826206,0.459175 -0.734399,0.550616 -0.642591,0.64262 -0.642592,0.64262 -0.550813,0.734342 -0.459007,0.826347 -0.459006,0.826064 -0.367199,1.009791 -0.275393,0.918069 -0.09181,1.009791 -0.09178,1.009791 0.09178,1.009792 0.09181,1.009791 0.275393,1.009791 0.367199,0.918069 0.459006,0.918069 0.459007,0.734342 0.550813,0.734342 0.642592,0.734342 0.642591,0.550898 0.734399,0.550898 0.826206,0.550615 0.826233,0.367454 0.918069,0.367171 1.009791,0.275166 1.009791,0.183727 1.009792,0 1.009791,0 1.009791,-0.183727 1.009791,-0.275166 0.918069,-0.367171 0.826064,-0.367454 0.826347,-0.550615 0.734342,-0.550898 0.64262,-0.550898"
           id="path4157"
           inkscape:connector-curvature="0" />
        <path
           style="fill:none;stroke:#ffffff;stroke-width:1.41111123;stroke-linecap:round;stroke-linejoin:round;stroke-miterlimit:4;stroke-dasharray:none;stroke-opacity:1"
           d="m 38.005173,33.598838 -0.09172,-0.550898 0,-0.458893 -0.183727,-0.550898 -0.183444,-0.550616 -0.183727,-0.550897 -0.367171,-0.459176 -0.275449,-0.550616 -0.458893,-0.367171 -0.459176,-0.459175 -0.458893,-0.275167 -0.458893,-0.367453 -0.550898,-0.183445 -0.550898,-0.183642 -0.550615,-0.183585 -0.459176,0 -0.550615,-0.09181 -0.550898,0.09181 -0.458894,0 -0.550897,0.183585 -0.550898,0.183642 -0.550616,0.183445 -0.459175,0.367453 -0.550616,0.275167 -0.367284,0.459175 -0.459006,0.367171 -0.275392,0.550616 -0.3672,0.459176 -0.183614,0.550897 -0.183585,0.550616 -0.183614,0.550898 0,0.458893 -0.09178,0.550898 0.09178,0.550898 0,0.458893 0.183614,0.550898 0.183585,0.550615 0.183614,0.550898 0.3672,0.458893 0.275392,0.459176 0.459006,0.458893 0.367284,0.458894 0.550616,0.275448 0.459175,0.367172 0.550616,0.183726 0.550898,0.183445 0.550897,0.183726 0.458894,0 0.550898,0.09172 0.550615,-0.09172 0.459176,0 0.550615,-0.183726 0.550898,-0.183445 0.550898,-0.183726 0.458893,-0.367172 0.458893,-0.275448 0.459176,-0.458894 0.458893,-0.458893 0.275449,-0.459176 0.367171,-0.458893 0.183727,-0.550898 0.183444,-0.550615 0.183727,-0.550898 0,-0.458893 0.09172,-0.550898"
           id="path4159"
           inkscape:connector-curvature="0" />
        <path
           style="fill:none;stroke:#ffffff;stroke-width:1.41111123;stroke-linecap:round;stroke-linejoin:round;stroke-miterlimit:4;stroke-dasharray:none;stroke-opacity:1"
           d="m 40.942824,18.084602 0,-0.734398 -0.183726,-0.826206 -0.183445,-0.826205 -0.275449,-0.826206 -0.367171,-0.734399 -0.458893,-0.826177 -0.459176,-0.734399 -0.64262,-0.64262 -0.64262,-0.550784 -0.734342,-0.550814 -0.734342,-0.459006 -0.826347,-0.367199 -0.826064,-0.2753926 -0.826347,-0.1835855 -0.826064,-0.091807 -0.734342,-0.091807 -0.826347,0.091807 -0.734342,0.091807 -0.826065,0.1835855 -0.826346,0.2753926 -0.826178,0.367199 -0.734398,0.459006 -0.734399,0.550814 -0.642592,0.550784 -0.64262,0.64262 -0.550785,0.734399 -0.367199,0.826177 -0.367199,0.734399 -0.275393,0.826206 -0.183614,0.826205 -0.183585,0.826206 0,0.734398 0,0.826206 0.183585,0.826206 0.183614,0.734398 0.275393,0.826178 0.367199,0.826205 0.367199,0.734399 0.550785,0.734398 0.64262,0.64262 0.642592,0.642592 0.734399,0.550785 0.734398,0.459006 0.826178,0.3672 0.826346,0.275392 0.826065,0.183614 0.734342,0.09181 0.826347,0 0.734342,0 0.826064,-0.09181 0.826347,-0.183614 0.826064,-0.275392 0.826347,-0.3672 0.734342,-0.459006 0.734342,-0.550785 0.64262,-0.642592 0.64262,-0.64262 0.459176,-0.734398 0.458893,-0.734399 0.367171,-0.826205 0.275449,-0.826178 0.183445,-0.734398 0.183726,-0.826206 0,-0.826206"
           id="path4161"
           inkscape:connector-curvature="0" />
        <path
           style="fill:none;stroke:#ffffff;stroke-width:1.41111123;stroke-linecap:round;stroke-linejoin:round;stroke-miterlimit:4;stroke-dasharray:none;stroke-opacity:1"
           d="m 57.283209,19.5534 -6.793089,6.976787 -6.976816,3.672106 -8.445782,11.291429"
           id="path4163"
           inkscape:connector-curvature="0" />
      </g>
    </g>
  </g>
</svg>
